<?xml version="1.0" encoding="iso-8859-1"?>
<!-- Generator: Adobe Illustrator 18.0.0, SVG Export Plug-In . SVG Version: 6.00 Build 0)  -->
<!DOCTYPE svg PUBLIC "-//W3C//DTD SVG 1.1//EN" "http://www.w3.org/Graphics/SVG/1.1/DTD/svg11.dtd">
<svg version="1.1" id="Capa_1" xmlns="http://www.w3.org/2000/svg" xmlns:xlink="http://www.w3.org/1999/xlink" x="0px" y="0px"
	 viewBox="0 0 58 58" style="enable-background:new 0 0 58 58;" xml:space="preserve">
<g>
	<g>
		<path style="fill:#545E73;" d="M50.668,58H2.332C1.32,58,0.5,57.18,0.5,56.168V1.832C0.5,0.82,1.32,0,2.332,0h48.335
			C51.68,0,52.5,0.82,52.5,1.832v54.335C52.5,57.18,51.68,58,50.668,58z"/>
		<path style="fill:#ECF0F1;" d="M31.995,17h-10.99c-1.933,0-3.505-1.572-3.505-3.505V12c0-0.553,0.447-1,1-1s1,0.447,1,1v1.495
			c0,0.83,0.675,1.505,1.505,1.505h10.99c0.83,0,1.505-0.675,1.505-1.505V12c0-0.553,0.447-1,1-1s1,0.447,1,1v1.495
			C35.5,15.428,33.928,17,31.995,17z"/>
		<path style="fill:#ECF0F1;" d="M31.995,46h-10.99c-1.933,0-3.505-1.572-3.505-3.505V41c0-0.553,0.447-1,1-1s1,0.447,1,1v1.495
			c0,0.83,0.675,1.505,1.505,1.505h10.99c0.83,0,1.505-0.675,1.505-1.505V41c0-0.553,0.447-1,1-1s1,0.447,1,1v1.495
			C35.5,44.428,33.928,46,31.995,46z"/>
		<rect x="0.5" y="28" style="fill:#394050;" width="52" height="2"/>
	</g>
	<g>
		<rect x="37.5" y="42" style="fill:#B1D3EF;" width="20" height="16"/>
		<path style="fill:#556080;" d="M50.5,49c0-1.657-1.343-3-3-3s-3,1.343-3,3c0,1.317,0.854,2.424,2.035,2.827
			C46.524,51.885,46.5,51.939,46.5,52v2c0,0.552,0.448,1,1,1s1-0.448,1-1v-2c0-0.061-0.024-0.115-0.035-0.173
			C49.646,51.424,50.5,50.317,50.5,49z"/>
		<path style="fill:#FFFFFF;" d="M42.5,40c0-2.757,2.243-5,5-5s5,2.243,5,5v2h2v-2c0-3.86-3.14-7-7-7s-7,3.14-7,7v2h2V40z"/>
	</g>
</g>
<g>
</g>
<g>
</g>
<g>
</g>
<g>
</g>
<g>
</g>
<g>
</g>
<g>
</g>
<g>
</g>
<g>
</g>
<g>
</g>
<g>
</g>
<g>
</g>
<g>
</g>
<g>
</g>
<g>
</g>
</svg>
